<?xml version="1.0" encoding="UTF-8"?><svg id="Layer_1" xmlns="http://www.w3.org/2000/svg" viewBox="0 0 78.81 84"><path d="m40.95,37c5.74,0,10.2-1.36,13.38-4.07,3.18-2.79,4.77-6.4,4.77-10.82v-1.51c0-4.65-1.55-8.22-4.66-10.7-3.03-2.56-6.98-3.84-11.87-3.84s-8.65,1.01-11.52,3.02c-2.87,1.94-5.16,4.54-6.87,7.8l-5.24-3.72c.93-1.71,2.1-3.34,3.49-4.89,1.47-1.63,3.14-3.06,5-4.3,1.94-1.24,4.15-2.21,6.63-2.91,2.56-.7,5.43-1.05,8.61-1.05,3.41,0,6.55.47,9.42,1.4,2.95.93,5.47,2.29,7.57,4.07,2.09,1.71,3.72,3.84,4.89,6.4,1.24,2.48,1.86,5.31,1.86,8.49,0,2.71-.43,5.16-1.28,7.33-.78,2.17-1.9,4.03-3.38,5.58-1.4,1.55-3.1,2.87-5.12,3.96-1.94,1.01-4.03,1.78-6.28,2.33v.47c2.4.39,4.69,1.12,6.87,2.21,2.17,1.01,4.03,2.37,5.59,4.07,1.63,1.71,2.91,3.76,3.84,6.17.93,2.4,1.4,5.12,1.4,8.14,0,3.49-.62,6.71-1.86,9.66-1.24,2.87-3.02,5.31-5.35,7.33-2.33,2.02-5.12,3.61-8.38,4.77-3.26,1.09-6.9,1.63-10.94,1.63-3.26,0-6.21-.35-8.84-1.05-2.64-.62-5-1.51-7.1-2.68-2.09-1.24-3.96-2.68-5.58-4.3s-3.07-3.37-4.31-5.24l5.24-3.96c2.25,3.49,4.96,6.24,8.14,8.26,3.18,1.94,7.33,2.91,12.45,2.91,5.97,0,10.67-1.47,14.08-4.42,3.41-3.02,5.12-7.1,5.12-12.22v-1.86c0-5.12-1.67-9.11-5-11.98-3.26-2.95-8.03-4.42-14.31-4.42h-10.24v-6.05h9.77Z"/></svg>