<?xml version="1.0" encoding="UTF-8"?><svg id="Layer_1" xmlns="http://www.w3.org/2000/svg" viewBox="0 0 59.96 84"><path d="m0,1.4h26.88c6.59,0,11.75,1.82,15.48,5.47,3.72,3.65,5.59,8.76,5.59,15.36,0,5.04-1.09,9.04-3.26,11.98-2.17,2.87-5.12,4.89-8.84,6.05v.23c4.73,1.01,8.46,3.14,11.17,6.4,2.79,3.18,4.19,7.56,4.19,13.15,0,3.26-.5,6.28-1.51,9.07-1.01,2.71-2.44,5.08-4.31,7.1s-4.11,3.61-6.75,4.77c-2.56,1.09-5.43,1.63-8.61,1.63H0V1.4Zm28.28,75.16c5.12,0,9-1.28,11.64-3.84,2.64-2.56,3.96-5.93,3.96-10.12v-4.77c0-4.19-1.32-7.56-3.96-10.12-2.64-2.56-6.52-3.84-11.64-3.84H6.98v32.69h21.3Zm-1.98-38.51c4.65,0,8.18-1.16,10.59-3.49,2.48-2.33,3.72-5.47,3.72-9.42v-4.65c0-3.96-1.24-7.1-3.72-9.42-2.4-2.4-5.93-3.61-10.59-3.61H6.98v30.6h19.32Z"/></svg>