<svg width="1360" height="84" viewBox="0 0 1360 84" fill="none" xmlns="http://www.w3.org/2000/svg">
<path d="M0 1.39612H26.8812C33.4755 1.39612 38.6345 3.21884 42.3583 6.86427C46.0821 10.5097 47.944 15.6288 47.944 22.2216C47.944 27.2632 46.8579 31.2576 44.6857 34.205C42.5134 37.0748 39.5654 39.0914 35.8416 40.2549V40.4875C40.574 41.4958 44.2978 43.6288 47.013 46.8864C49.8059 50.0665 51.2023 54.4488 51.2023 60.0332C51.2023 63.2909 50.6981 66.3158 49.6895 69.108C48.681 71.8227 47.2458 74.1884 45.3839 76.205C43.522 78.2216 41.2722 79.8116 38.6345 80.9751C36.0744 82.061 33.2039 82.6039 30.0232 82.6039H0V1.39612ZM28.2776 76.554C33.3979 76.554 37.2768 75.2742 39.9145 72.7147C42.5522 70.1551 43.8711 66.7812 43.8711 62.5928V57.8227C43.8711 53.6344 42.5522 50.2604 39.9145 47.7008C37.2768 45.1413 33.3979 43.8615 28.2776 43.8615H6.98214V76.554H28.2776ZM26.2994 38.0443C30.9541 38.0443 34.484 36.8809 36.889 34.554C39.3715 32.2271 40.6128 29.0859 40.6128 25.1302V20.4765C40.6128 16.5208 39.3715 13.3795 36.889 11.0526C34.484 8.6482 30.9541 7.44599 26.2994 7.44599H6.98214V38.0443H26.2994Z" fill="white"/>
<path d="M73.0342 82.6039V1.39612H80.0164V76.554H119.815V82.6039H73.0342Z" fill="white"/>
<path d="M137.806 82.6039V1.39612H186.798V7.44599H144.788V38.3934H185.285V44.4432H144.788V76.554H186.798V82.6039H137.806Z" fill="white"/>
<path d="M212.237 10.3546H211.655V82.6039H205.255V1.39612H215.146L247.846 73.1801H248.428V1.39612H254.828V82.6039H244.937L212.237 10.3546Z" fill="white"/>
<path d="M275.38 1.39612H297.49C307.342 1.39612 314.596 4.84765 319.251 11.7507C323.983 18.5762 326.349 28.6593 326.349 42C326.349 55.4183 323.983 65.5402 319.251 72.3657C314.596 79.1911 307.342 82.6039 297.49 82.6039H275.38V1.39612ZM297.257 76.554C304.627 76.554 310.058 73.9945 313.549 68.8753C317.117 63.6787 318.902 56.4654 318.902 47.2355V36.7645C318.902 27.5346 317.117 20.3601 313.549 15.241C310.058 10.0443 304.627 7.44599 297.257 7.44599H282.362V76.554H297.257Z" fill="white"/>
<path d="M343.643 82.6039V1.39612H392.634V7.44599H350.625V38.3934H391.121V44.4432H350.625V76.554H392.634V82.6039H343.643Z" fill="white"/>
<path d="M419.237 82.6039H412.255V1.39612H441.347C448.562 1.39612 454.032 3.45152 457.755 7.56233C461.479 11.5956 463.341 17.1413 463.341 24.1994C463.341 30.7922 461.634 36.0665 458.221 40.0222C454.885 43.9778 449.92 46.1496 443.326 46.5374H441.58L463.574 82.6039H455.777L434.365 46.8864H419.237V82.6039ZM441.231 40.9529C446.118 40.9529 449.803 39.6343 452.286 36.9972C454.769 34.3601 456.01 31.0249 456.01 26.9917V21.4072C456.01 17.374 454.769 14.0388 452.286 11.4017C449.803 8.76454 446.118 7.44599 441.231 7.44599H419.237V40.9529H441.231Z" fill="white"/>
<path d="M525.902 36.9972C531.643 36.9972 536.104 35.6399 539.285 32.9252C542.465 30.133 544.056 26.5263 544.056 22.1053V20.5928C544.056 15.9391 542.504 12.3712 539.401 9.8892C536.375 7.32964 532.419 6.04986 527.531 6.04986C522.721 6.04986 518.881 7.05817 516.011 9.07479C513.14 11.0138 510.852 13.6122 509.145 16.8698L503.908 13.1468C504.839 11.4404 506.003 9.81164 507.399 8.26039C508.873 6.63158 510.541 5.19668 512.403 3.95568C514.343 2.71468 516.554 1.74515 519.036 1.04709C521.596 0.349031 524.467 0 527.648 0C531.061 0 534.203 0.465374 537.073 1.39612C540.021 2.32687 542.543 3.68421 544.638 5.46814C546.732 7.17452 548.361 9.30748 549.525 11.867C550.766 14.349 551.387 17.1801 551.387 20.3601C551.387 23.0748 550.96 25.518 550.107 27.6898C549.331 29.8615 548.206 31.723 546.732 33.2742C545.336 34.8255 543.629 36.144 541.612 37.2299C539.672 38.2382 537.578 39.0139 535.328 39.5568V40.0222C537.733 40.41 540.021 41.1468 542.194 42.2327C544.366 43.241 546.228 44.5983 547.779 46.3047C549.409 48.0111 550.689 50.0665 551.62 52.4709C552.551 54.8754 553.016 57.59 553.016 60.615C553.016 64.1053 552.395 67.3241 551.154 70.2715C549.913 73.1413 548.129 75.5845 545.801 77.6011C543.474 79.6177 540.681 81.2078 537.423 82.3712C534.164 83.4571 530.518 84 526.484 84C523.226 84 520.278 83.651 517.64 82.9529C515.002 82.3324 512.636 81.4405 510.541 80.277C508.447 79.036 506.585 77.6011 504.956 75.9723C503.327 74.3435 501.891 72.5983 500.65 70.7368L505.887 66.7812C508.136 70.2715 510.852 73.0249 514.032 75.0416C517.213 76.9806 521.364 77.9501 526.484 77.9501C532.458 77.9501 537.151 76.4765 540.565 73.5291C543.978 70.5042 545.685 66.4321 545.685 61.313V59.4515C545.685 54.3324 544.017 50.338 540.681 47.4681C537.423 44.5208 532.651 43.0471 526.368 43.0471H516.127V36.9972H525.902Z" fill="white"/>
<path d="M574.266 1.39612H596.376C606.229 1.39612 613.482 4.84765 618.137 11.7507C622.87 18.5762 625.236 28.6593 625.236 42C625.236 55.4183 622.87 65.5402 618.137 72.3657C613.482 79.1911 606.229 82.6039 596.376 82.6039H574.266V1.39612ZM596.143 76.554C603.514 76.554 608.944 73.9945 612.435 68.8753C616.004 63.6787 617.788 56.4654 617.788 47.2355V36.7645C617.788 27.5346 616.004 20.3601 612.435 15.241C608.944 10.0443 603.514 7.44599 596.143 7.44599H581.248V76.554H596.143Z" fill="white"/>
<path d="M690.59 84C686.943 84 683.685 83.651 680.815 82.9529C677.944 82.2549 675.345 81.3241 673.018 80.1607C670.69 78.9197 668.596 77.446 666.734 75.7396C664.95 74.0332 663.32 72.1717 661.846 70.1551L666.967 65.9668C669.992 69.8449 673.328 72.831 676.974 74.9252C680.621 76.9418 685.237 77.9501 690.822 77.9501C697.339 77.9501 702.343 76.5153 705.834 73.6454C709.325 70.6981 711.071 66.4709 711.071 60.964C711.071 55.9224 709.596 52.1995 706.648 49.795C703.778 47.3906 699.666 45.7618 694.313 44.9086L685.237 43.3961C681.203 42.6981 677.828 41.651 675.113 40.2549C672.475 38.8587 670.341 37.2299 668.712 35.3684C667.083 33.4294 665.919 31.2964 665.221 28.9695C664.601 26.6427 664.29 24.2382 664.29 21.7562C664.29 14.4654 666.656 9.03601 671.389 5.46814C676.199 1.82272 682.638 0 690.706 0C697.3 0 702.692 1.08587 706.881 3.25762C711.148 5.3518 714.562 8.26039 717.122 11.9834L712.234 16.2881C709.907 13.0305 707.036 10.5097 703.623 8.72576C700.287 6.94183 695.904 6.04986 690.473 6.04986C684.422 6.04986 679.69 7.36842 676.276 10.0055C672.94 12.5651 671.272 16.4044 671.272 21.5235C671.272 26.2548 672.669 29.8615 675.462 32.3435C678.254 34.7479 682.405 36.3767 687.913 37.2299L696.874 38.7424C700.985 39.4404 704.399 40.5263 707.114 42C709.829 43.3961 712.001 45.0637 713.631 47.0028C715.26 48.9418 716.385 51.0748 717.005 53.4017C717.704 55.7285 718.053 58.1718 718.053 60.7313C718.053 68.1773 715.648 73.9169 710.838 77.9501C706.028 81.9834 699.278 84 690.59 84Z" fill="white"/>
<path d="M762.693 7.44599V82.6039H755.711V7.44599H727.899V1.39612H790.505V7.44599H762.693Z" fill="white"/>
<path d="M810.01 1.39612V50.3767C810.01 55.108 810.204 59.2188 810.591 62.7091C810.979 66.1219 811.794 68.9917 813.035 71.3186C814.276 73.5679 816.061 75.2355 818.388 76.3213C820.716 77.4072 823.857 77.9501 827.814 77.9501C831.771 77.9501 834.912 77.4072 837.24 76.3213C839.567 75.2355 841.352 73.5679 842.593 71.3186C843.834 68.9917 844.649 66.1219 845.037 62.7091C845.424 59.2188 845.618 55.108 845.618 50.3767V1.39612H852.601V48.9806C852.601 55.1856 852.251 60.4986 851.553 64.9197C850.933 69.2632 849.691 72.8698 847.829 75.7396C846.045 78.6094 843.524 80.7036 840.265 82.0222C837.085 83.3407 832.934 84 827.814 84C822.694 84 818.504 83.3407 815.246 82.0222C812.065 80.7036 809.544 78.6094 807.682 75.7396C805.898 72.8698 804.657 69.2632 803.958 64.9197C803.338 60.4986 803.027 55.1856 803.027 48.9806V1.39612H810.01Z" fill="white"/>
<path d="M873.152 1.39612H895.263C905.115 1.39612 912.369 4.84765 917.023 11.7507C921.756 18.5762 924.122 28.6593 924.122 42C924.122 55.4183 921.756 65.5402 917.023 72.3657C912.369 79.1911 905.115 82.6039 895.263 82.6039H873.152V1.39612ZM895.03 76.554C902.4 76.554 907.83 73.9945 911.321 68.8753C914.89 63.6787 916.674 56.4654 916.674 47.2355V36.7645C916.674 27.5346 914.89 20.3601 911.321 15.241C907.83 10.0443 902.4 7.44599 895.03 7.44599H880.135V76.554H895.03Z" fill="white"/>
<path d="M961.547 82.6039V49.795L932.571 1.39612H940.601L964.806 42.8144H965.271L989.709 1.39612H997.505L968.53 49.795V82.6039H961.547Z" fill="white"/>
<path d="M1076.94 71.3186H1076.47C1075.78 73.0249 1074.92 74.6538 1073.91 76.205C1072.91 77.6787 1071.66 78.9972 1070.19 80.1607C1068.72 81.3241 1066.89 82.2549 1064.72 82.9529C1062.63 83.651 1060.14 84 1057.27 84C1048.43 84 1041.76 80.5485 1037.26 73.6454C1032.76 66.7424 1030.51 56.3103 1030.51 42.349C1030.51 28 1032.87 17.374 1037.61 10.4709C1042.42 3.49031 1049.55 0 1059.02 0C1062.35 0 1065.34 0.465374 1067.98 1.39612C1070.62 2.32687 1072.91 3.56787 1074.85 5.11912C1076.78 6.67036 1078.41 8.49308 1079.73 10.5873C1081.13 12.6814 1082.25 14.892 1083.11 17.2188L1077.06 19.8947C1075.58 15.9391 1073.45 12.6427 1070.66 10.0055C1067.94 7.36842 1064.14 6.04986 1059.25 6.04986C1052.04 6.04986 1046.68 8.72576 1043.19 14.0776C1039.7 19.3518 1037.96 26.8366 1037.96 36.5319V47.1191C1037.96 56.7369 1039.59 64.2992 1042.84 69.8061C1046.18 75.313 1051.46 78.0665 1058.67 78.0665C1061.54 78.0665 1064.1 77.6011 1066.35 76.6704C1068.6 75.7396 1070.5 74.4211 1072.05 72.7147C1073.6 71.0083 1074.81 69.0305 1075.66 66.7812C1076.51 64.4543 1076.94 61.8947 1076.94 59.1025V49.446H1058.44V43.8615H1083.46V82.6039H1076.94V71.3186Z" fill="white"/>
<path d="M1110.06 82.6039H1103.08V1.39612H1132.17C1139.38 1.39612 1144.85 3.45152 1148.58 7.56233C1152.3 11.5956 1154.16 17.1413 1154.16 24.1994C1154.16 30.7922 1152.46 36.0665 1149.04 40.0222C1145.71 43.9778 1140.74 46.1496 1134.15 46.5374H1132.4L1154.4 82.6039H1146.6L1125.19 46.8864H1110.06V82.6039ZM1132.05 40.9529C1136.94 40.9529 1140.63 39.6343 1143.11 36.9972C1145.59 34.3601 1146.83 31.0249 1146.83 26.9917V21.4072C1146.83 17.374 1145.59 14.0388 1143.11 11.4017C1140.63 8.76454 1136.94 7.44599 1132.05 7.44599H1110.06V40.9529H1132.05Z" fill="white"/>
<path d="M1195.31 84C1185.93 84 1178.94 80.5097 1174.37 73.5291C1169.87 66.4709 1167.62 55.9612 1167.62 42C1167.62 28.0388 1169.87 17.5679 1174.37 10.5873C1178.94 3.52909 1185.93 0 1195.31 0C1204.7 0 1211.64 3.52909 1216.14 10.5873C1220.72 17.5679 1223.01 28.0388 1223.01 42C1223.01 55.9612 1220.72 66.4709 1216.14 73.5291C1211.64 80.5097 1204.7 84 1195.31 84ZM1195.31 77.9501C1202.29 77.9501 1207.41 75.313 1210.67 70.0388C1213.93 64.687 1215.56 57.1634 1215.56 47.4681V36.5319C1215.56 26.9141 1213.93 19.4294 1210.67 14.0776C1207.41 8.72576 1202.29 6.04986 1195.31 6.04986C1188.33 6.04986 1183.21 8.72576 1179.95 14.0776C1176.69 19.4294 1175.06 26.9141 1175.06 36.5319V47.4681C1175.06 57.1634 1176.69 64.687 1179.95 70.0388C1183.21 75.313 1188.33 77.9501 1195.31 77.9501Z" fill="white"/>
<path d="M1246.12 1.39612V50.3767C1246.12 55.108 1246.31 59.2188 1246.7 62.7091C1247.09 66.1219 1247.9 68.9917 1249.15 71.3186C1250.39 73.5679 1252.17 75.2355 1254.5 76.3213C1256.83 77.4072 1259.97 77.9501 1263.92 77.9501C1267.88 77.9501 1271.02 77.4072 1273.35 76.3213C1275.68 75.2355 1277.46 73.5679 1278.7 71.3186C1279.94 68.9917 1280.76 66.1219 1281.15 62.7091C1281.54 59.2188 1281.73 55.108 1281.73 50.3767V1.39612H1288.71V48.9806C1288.71 55.1856 1288.36 60.4986 1287.66 64.9197C1287.04 69.2632 1285.8 72.8698 1283.94 75.7396C1282.16 78.6094 1279.63 80.7036 1276.38 82.0222C1273.2 83.3407 1269.04 84 1263.92 84C1258.8 84 1254.62 83.3407 1251.36 82.0222C1248.18 80.7036 1245.65 78.6094 1243.79 75.7396C1242.01 72.8698 1240.77 69.2632 1240.07 64.9197C1239.45 60.4986 1239.14 55.1856 1239.14 48.9806V1.39612H1246.12Z" fill="white"/>
<path d="M1308.91 82.6039V1.39612H1338.01C1345.22 1.39612 1350.69 3.45152 1354.41 7.56233C1358.14 11.5956 1360 17.1413 1360 24.1994C1360 31.2576 1358.14 36.8421 1354.41 40.9529C1350.69 44.9862 1345.22 47.0028 1338.01 47.0028H1315.9V82.6039H1308.91ZM1315.9 40.9529H1337.89C1342.78 40.9529 1346.46 39.6343 1348.94 36.9972C1351.43 34.3601 1352.67 31.0249 1352.67 26.9917V21.4072C1352.67 17.374 1351.43 14.0388 1348.94 11.4017C1346.46 8.76454 1342.78 7.44599 1337.89 7.44599H1315.9V40.9529Z" fill="white"/>
</svg>
