<?xml version="1.0" encoding="UTF-8"?><svg id="Layer_1" xmlns="http://www.w3.org/2000/svg" viewBox="0 0 67.84 84"><path d="m32.97,84c-9.38,0-16.37-3.49-20.94-10.47-4.5-7.06-6.75-17.57-6.75-31.53s2.25-24.43,6.75-31.41C16.6,3.53,23.59,0,32.97,0s16.33,3.53,20.83,10.59c4.58,6.98,6.87,17.45,6.87,31.41s-2.29,24.47-6.87,31.53c-4.5,6.98-11.44,10.47-20.83,10.47Zm0-6.05c6.98,0,12.1-2.64,15.36-7.91,3.26-5.35,4.89-12.88,4.89-22.57v-10.94c0-9.62-1.63-17.1-4.89-22.45-3.26-5.35-8.38-8.03-15.36-8.03s-12.1,2.68-15.36,8.03c-3.26,5.35-4.89,12.84-4.89,22.45v10.94c0,9.7,1.63,17.22,4.89,22.57,3.26,5.27,8.38,7.91,15.36,7.91Z"/></svg>