<?xml version="1.0" encoding="UTF-8"?><svg id="Layer_1" xmlns="http://www.w3.org/2000/svg" viewBox="0 0 81.81 84"><path d="m49.01,84c-3.65,0-6.91-.35-9.78-1.05-2.87-.7-5.47-1.63-7.8-2.79-2.33-1.24-4.42-2.71-6.28-4.42-1.78-1.71-3.41-3.57-4.89-5.58l5.12-4.19c3.03,3.88,6.36,6.86,10.01,8.96,3.65,2.02,8.26,3.02,13.85,3.02,6.52,0,11.52-1.43,15.01-4.3,3.49-2.95,5.24-7.17,5.24-12.68,0-5.04-1.47-8.76-4.42-11.17-2.87-2.4-6.98-4.03-12.34-4.89l-9.08-1.51c-4.03-.7-7.41-1.75-10.12-3.14-2.64-1.4-4.77-3.03-6.4-4.89-1.63-1.94-2.79-4.07-3.49-6.4-.62-2.33-.93-4.73-.93-7.21,0-7.29,2.37-12.72,7.1-16.29C34.62,1.82,41.06,0,49.13,0c6.59,0,11.99,1.09,16.17,3.26,4.27,2.09,7.68,5,10.24,8.73l-4.89,4.3c-2.33-3.26-5.2-5.78-8.61-7.56-3.34-1.78-7.72-2.68-13.15-2.68-6.05,0-10.78,1.32-14.2,3.96-3.34,2.56-5,6.4-5,11.52,0,4.73,1.4,8.34,4.19,10.82,2.79,2.4,6.94,4.03,12.45,4.89l8.96,1.51c4.11.7,7.52,1.78,10.24,3.26,2.71,1.4,4.89,3.06,6.52,5,1.63,1.94,2.75,4.07,3.37,6.4.7,2.33,1.05,4.77,1.05,7.33,0,7.45-2.4,13.19-7.21,17.22-4.81,4.03-11.56,6.05-20.25,6.05Z"/></svg>