<?xml version="1.0" encoding="UTF-8"?><svg id="Layer_1" xmlns="http://www.w3.org/2000/svg" viewBox="0 0 69.83 84"><path d="m15.95,1.4v48.98c0,4.73.19,8.84.58,12.33.39,3.41,1.2,6.28,2.45,8.61,1.24,2.25,3.02,3.92,5.35,5,2.33,1.09,5.47,1.63,9.42,1.63s7.1-.54,9.43-1.63c2.33-1.09,4.11-2.75,5.35-5,1.24-2.33,2.06-5.2,2.45-8.61.39-3.49.58-7.6.58-12.33V1.4h6.98v47.58c0,6.21-.35,11.52-1.05,15.94-.62,4.34-1.86,7.95-3.72,10.82-1.78,2.87-4.31,4.96-7.56,6.28-3.18,1.32-7.34,1.98-12.46,1.98s-9.3-.66-12.56-1.98c-3.18-1.32-5.71-3.41-7.57-6.28-1.78-2.87-3.02-6.48-3.72-10.82-.62-4.42-.93-9.73-.93-15.94V1.4h6.98Z"/></svg>