<?xml version="1.0" encoding="UTF-8"?><svg id="Layer_1" xmlns="http://www.w3.org/2000/svg" viewBox="0 0 82.8 84"><path d="m63.25,71.32h-.47c-.69,1.71-1.55,3.34-2.56,4.89-1,1.47-2.25,2.79-3.72,3.96-1.47,1.16-3.3,2.09-5.47,2.79-2.09.7-4.58,1.05-7.45,1.05-8.84,0-15.51-3.45-20.01-10.35-4.5-6.9-6.75-17.34-6.75-31.3s2.36-24.97,7.1-31.88C28.73,3.49,35.86,0,45.33,0c3.33,0,6.32.47,8.96,1.4,2.64.93,4.93,2.17,6.87,3.72,1.93,1.55,3.56,3.37,4.88,5.47,1.4,2.09,2.52,4.3,3.38,6.63l-6.05,2.68c-1.48-3.96-3.61-7.25-6.4-9.89-2.72-2.64-6.52-3.96-11.41-3.96-7.21,0-12.57,2.68-16.06,8.03-3.49,5.27-5.23,12.76-5.23,22.45v10.59c0,9.62,1.63,17.18,4.88,22.69,3.34,5.51,8.62,8.26,15.83,8.26,2.87,0,5.43-.47,7.68-1.4,2.25-.93,4.15-2.25,5.7-3.96,1.55-1.71,2.76-3.68,3.61-5.93.85-2.33,1.28-4.89,1.28-7.68v-9.66h-18.5v-5.58h25.02v38.74h-6.52v-11.29Z"/></svg>