<?xml version="1.0" encoding="utf-8"?>
<!-- Generator: Adobe Illustrator 27.2.0, SVG Export Plug-In . SVG Version: 6.00 Build 0)  -->
<svg version="1.1" id="Layer_1" xmlns="http://www.w3.org/2000/svg" xmlns:xlink="http://www.w3.org/1999/xlink" x="0px" y="0px"
	 viewBox="0 0 60 84" style="enable-background:new 0 0 60 84;" xml:space="preserve">
<path d="M-1300,1.4h26.9c6.6,0,11.8,1.8,15.5,5.5c3.7,3.6,5.6,8.8,5.6,15.4c0,5-1.1,9-3.3,12c-2.2,2.9-5.1,4.9-8.8,6v0.2
	c4.7,1,8.5,3.1,11.2,6.4c2.8,3.2,4.2,7.6,4.2,13.1c0,3.3-0.5,6.3-1.5,9.1c-1,2.7-2.4,5.1-4.3,7.1c-1.9,2-4.1,3.6-6.7,4.8
	c-2.6,1.1-5.4,1.6-8.6,1.6h-30V1.4z M-1271.7,76.6c5.1,0,9-1.3,11.6-3.8c2.6-2.6,4-5.9,4-10.1v-4.8c0-4.2-1.3-7.6-4-10.1
	c-2.6-2.6-6.5-3.8-11.6-3.8h-21.3v32.7H-1271.7z M-1273.7,38c4.7,0,8.2-1.2,10.6-3.5c2.5-2.3,3.7-5.5,3.7-9.4v-4.7
	c0-4-1.2-7.1-3.7-9.4c-2.4-2.4-5.9-3.6-10.6-3.6h-19.3V38H-1273.7z"/>
<path d="M-1227,82.6V1.4h7v75.2h39.8v6H-1227z"/>
<path d="M-1162.2,82.6V1.4h49v6h-42v30.9h40.5v6h-40.5v32.1h42v6H-1162.2z"/>
<path d="M-1087.8,10.4h-0.6v72.2h-6.4V1.4h9.9l32.7,71.8h0.6V1.4h6.4v81.2h-9.9L-1087.8,10.4z"/>
<path d="M-1024.6,1.4h22.1c9.9,0,17.1,3.5,21.8,10.4c4.7,6.8,7.1,16.9,7.1,30.2c0,13.4-2.4,23.5-7.1,30.4
	c-4.7,6.8-11.9,10.2-21.8,10.2h-22.1V1.4z M-1002.8,76.6c7.4,0,12.8-2.6,16.3-7.7c3.6-5.2,5.4-12.4,5.4-21.6V36.8
	c0-9.2-1.8-16.4-5.4-21.5c-3.5-5.2-8.9-7.8-16.3-7.8h-14.9v69.1H-1002.8z"/>
<path d="M-956.4,82.6V1.4h49v6h-42v30.9h40.5v6h-40.5v32.1h42v6H-956.4z"/>
<path d="M-880.8,82.6h-7V1.4h29.1c7.2,0,12.7,2.1,16.4,6.2c3.7,4,5.6,9.6,5.6,16.6c0,6.6-1.7,11.9-5.1,15.8c-3.3,4-8.3,6.1-14.9,6.5
	h-1.7l22,36.1h-7.8l-21.4-35.7h-15.1V82.6z M-858.8,41c4.9,0,8.6-1.3,11.1-4c2.5-2.6,3.7-6,3.7-10v-5.6c0-4-1.2-7.4-3.7-10
	c-2.5-2.6-6.2-4-11.1-4h-22V41H-858.8z"/>
<path d="M-774.1,37c5.7,0,10.2-1.4,13.4-4.1c3.2-2.8,4.8-6.4,4.8-10.8v-1.5c0-4.7-1.6-8.2-4.7-10.7c-3-2.6-7-3.8-11.9-3.8
	c-4.8,0-8.7,1-11.5,3c-2.9,1.9-5.2,4.5-6.9,7.8l-5.2-3.7c0.9-1.7,2.1-3.3,3.5-4.9c1.5-1.6,3.1-3.1,5-4.3c1.9-1.2,4.2-2.2,6.6-2.9
	c2.6-0.7,5.4-1,8.6-1c3.4,0,6.6,0.5,9.4,1.4c2.9,0.9,5.5,2.3,7.6,4.1c2.1,1.7,3.7,3.8,4.9,6.4c1.2,2.5,1.9,5.3,1.9,8.5
	c0,2.7-0.4,5.2-1.3,7.3c-0.8,2.2-1.9,4-3.4,5.6c-1.4,1.6-3.1,2.9-5.1,4c-1.9,1-4,1.8-6.3,2.3V40c2.4,0.4,4.7,1.1,6.9,2.2
	c2.2,1,4,2.4,5.6,4.1c1.6,1.7,2.9,3.8,3.8,6.2c0.9,2.4,1.4,5.1,1.4,8.1c0,3.5-0.6,6.7-1.9,9.7c-1.2,2.9-3,5.3-5.4,7.3
	c-2.3,2-5.1,3.6-8.4,4.8c-3.3,1.1-6.9,1.6-10.9,1.6c-3.3,0-6.2-0.3-8.8-1c-2.6-0.6-5-1.5-7.1-2.7c-2.1-1.2-4-2.7-5.6-4.3
	c-1.6-1.6-3.1-3.4-4.3-5.2l5.2-4c2.2,3.5,5,6.2,8.1,8.3c3.2,1.9,7.3,2.9,12.5,2.9c6,0,10.7-1.5,14.1-4.4c3.4-3,5.1-7.1,5.1-12.2
	v-1.9c0-5.1-1.7-9.1-5-12c-3.3-2.9-8-4.4-14.3-4.4h-10.2v-6H-774.1z"/>
<path d="M-725.7,1.4h22.1c9.9,0,17.1,3.5,21.8,10.4c4.7,6.8,7.1,16.9,7.1,30.2c0,13.4-2.4,23.5-7.1,30.4
	c-4.7,6.8-11.9,10.2-21.8,10.2h-22.1V1.4z M-703.9,76.6c7.4,0,12.8-2.6,16.3-7.7c3.6-5.2,5.4-12.4,5.4-21.6V36.8
	c0-9.2-1.8-16.4-5.4-21.5c-3.5-5.2-8.9-7.8-16.3-7.8h-14.9v69.1H-703.9z"/>
<path d="M-609.4,84c-3.6,0-6.9-0.3-9.8-1c-2.9-0.7-5.5-1.6-7.8-2.8c-2.3-1.2-4.4-2.7-6.3-4.4c-1.8-1.7-3.4-3.6-4.9-5.6l5.1-4.2
	c3,3.9,6.4,6.9,10,9c3.6,2,8.3,3,13.8,3c6.5,0,11.5-1.4,15-4.3c3.5-2.9,5.2-7.2,5.2-12.7c0-5-1.5-8.8-4.4-11.2
	c-2.9-2.4-7-4-12.3-4.9l-9.1-1.5c-4-0.7-7.4-1.7-10.1-3.1c-2.6-1.4-4.8-3-6.4-4.9c-1.6-1.9-2.8-4.1-3.5-6.4
	c-0.6-2.3-0.9-4.7-0.9-7.2c0-7.3,2.4-12.7,7.1-16.3c4.8-3.6,11.2-5.5,19.3-5.5c6.6,0,12,1.1,16.2,3.3c4.3,2.1,7.7,5,10.2,8.7
	l-4.9,4.3c-2.3-3.3-5.2-5.8-8.6-7.6c-3.3-1.8-7.7-2.7-13.1-2.7c-6.1,0-10.8,1.3-14.2,4c-3.3,2.6-5,6.4-5,11.5
	c0,4.7,1.4,8.3,4.2,10.8c2.8,2.4,6.9,4,12.5,4.9l9,1.5c4.1,0.7,7.5,1.8,10.2,3.3c2.7,1.4,4.9,3.1,6.5,5c1.6,1.9,2.8,4.1,3.4,6.4
	c0.7,2.3,1,4.8,1,7.3c0,7.4-2.4,13.2-7.2,17.2C-594,82-600.7,84-609.4,84z"/>
<path d="M-537.3,7.4v75.2h-7V7.4h-27.8v-6h62.6v6H-537.3z"/>
<path d="M-490,1.4v49c0,4.7,0.2,8.8,0.6,12.3c0.4,3.4,1.2,6.3,2.4,8.6c1.2,2.2,3,3.9,5.4,5c2.3,1.1,5.5,1.6,9.4,1.6
	c4,0,7.1-0.5,9.4-1.6c2.3-1.1,4.1-2.8,5.4-5c1.2-2.3,2.1-5.2,2.4-8.6c0.4-3.5,0.6-7.6,0.6-12.3v-49h7V49c0,6.2-0.4,11.5-1,15.9
	c-0.6,4.3-1.9,8-3.7,10.8c-1.8,2.9-4.3,5-7.6,6.3c-3.2,1.3-7.3,2-12.5,2c-5.1,0-9.3-0.7-12.6-2c-3.2-1.3-5.7-3.4-7.6-6.3
	c-1.8-2.9-3-6.5-3.7-10.8c-0.6-4.4-0.9-9.7-0.9-15.9V1.4H-490z"/>
<path d="M-426.9,1.4h22.1c9.9,0,17.1,3.5,21.8,10.4c4.7,6.8,7.1,16.9,7.1,30.2c0,13.4-2.4,23.5-7.1,30.4
	c-4.7,6.8-11.9,10.2-21.8,10.2h-22.1V1.4z M-405,76.6c7.4,0,12.8-2.6,16.3-7.7c3.6-5.2,5.4-12.4,5.4-21.6V36.8
	c0-9.2-1.8-16.4-5.4-21.5c-3.5-5.2-8.9-7.8-16.3-7.8h-14.9v69.1H-405z"/>
<path d="M-338.5,82.6V49.8l-29-48.4h8l24.2,41.4h0.5l24.4-41.4h7.8l-29,48.4v32.8H-338.5z"/>
<path d="M-223.1,71.3h-0.5c-0.7,1.7-1.5,3.3-2.6,4.9c-1,1.5-2.2,2.8-3.7,4c-1.5,1.2-3.3,2.1-5.5,2.8c-2.1,0.7-4.6,1-7.4,1
	c-8.8,0-15.5-3.5-20-10.4c-4.5-6.9-6.8-17.3-6.8-31.3c0-14.3,2.4-25,7.1-31.9C-257.6,3.5-250.5,0-241,0c3.3,0,6.3,0.5,9,1.4
	c2.6,0.9,4.9,2.2,6.9,3.7c1.9,1.6,3.6,3.4,4.9,5.5c1.4,2.1,2.5,4.3,3.4,6.6l-6,2.7c-1.5-4-3.6-7.3-6.4-9.9c-2.7-2.6-6.5-4-11.4-4
	c-7.2,0-12.6,2.7-16.1,8c-3.5,5.3-5.2,12.8-5.2,22.5v10.6c0,9.6,1.6,17.2,4.9,22.7c3.3,5.5,8.6,8.3,15.8,8.3c2.9,0,5.4-0.5,7.7-1.4
	c2.2-0.9,4.2-2.2,5.7-4c1.5-1.7,2.8-3.7,3.6-5.9c0.8-2.3,1.3-4.9,1.3-7.7v-9.7h-18.5v-5.6h25v38.7h-6.5V71.3z"/>
<path d="M-189.9,82.6h-7V1.4h29.1c7.2,0,12.7,2.1,16.4,6.2c3.7,4,5.6,9.6,5.6,16.6c0,6.6-1.7,11.9-5.1,15.8c-3.3,4-8.3,6.1-14.9,6.5
	h-1.8l22,36.1h-7.8l-21.4-35.7h-15.1V82.6z M-168,41c4.9,0,8.6-1.3,11.1-4s3.7-6,3.7-10v-5.6c0-4-1.2-7.4-3.7-10
	c-2.5-2.6-6.2-4-11.1-4h-22V41H-168z"/>
<path d="M-104.7,84c-9.4,0-16.4-3.5-20.9-10.5c-4.5-7.1-6.8-17.6-6.8-31.5s2.2-24.4,6.8-31.4C-121.1,3.5-114.1,0-104.7,0
	c9.4,0,16.3,3.5,20.8,10.6C-79.3,17.6-77,28-77,42s-2.3,24.5-6.9,31.5C-88.4,80.5-95.3,84-104.7,84z M-104.7,78
	c7,0,12.1-2.6,15.4-7.9c3.3-5.4,4.9-12.9,4.9-22.6V36.5c0-9.6-1.6-17.1-4.9-22.5c-3.3-5.4-8.4-8-15.4-8c-7,0-12.1,2.7-15.4,8
	c-3.3,5.4-4.9,12.8-4.9,22.5v10.9c0,9.7,1.6,17.2,4.9,22.6C-116.8,75.3-111.7,78-104.7,78z"/>
<path d="M-53.9,1.4v49c0,4.7,0.2,8.8,0.6,12.3c0.4,3.4,1.2,6.3,2.5,8.6c1.2,2.2,3,3.9,5.3,5c2.3,1.1,5.5,1.6,9.4,1.6
	c4,0,7.1-0.5,9.4-1.6c2.3-1.1,4.1-2.8,5.3-5c1.2-2.3,2.1-5.2,2.5-8.6c0.4-3.5,0.6-7.6,0.6-12.3v-49h7V49c0,6.2-0.3,11.5-1,15.9
	c-0.6,4.3-1.9,8-3.7,10.8c-1.8,2.9-4.3,5-7.6,6.3c-3.2,1.3-7.3,2-12.5,2s-9.3-0.7-12.6-2c-3.2-1.3-5.7-3.4-7.6-6.3
	c-1.8-2.9-3-6.5-3.7-10.8c-0.6-4.4-0.9-9.7-0.9-15.9V1.4H-53.9z"/>
<path d="M8.9,82.6V1.4H38c7.2,0,12.7,2.1,16.4,6.2c3.7,4,5.6,9.6,5.6,16.6c0,7.1-1.9,12.6-5.6,16.8c-3.7,4-9.2,6-16.4,6H15.9v35.6
	H8.9z M15.9,41h22c4.9,0,8.6-1.3,11-4c2.5-2.6,3.7-6,3.7-10v-5.6c0-4-1.2-7.4-3.7-10c-2.5-2.6-6.2-4-11-4h-22V41z"/>
</svg>
